<svg width="173" height="48" viewBox="0 0 173 48" fill="none" xmlns="http://www.w3.org/2000/svg">
<path d="M70.1662 24.03H69.3525C69.1975 24.0331 69.0486 24.0907 68.9318 24.1926C68.8149 24.2946 68.7375 24.4345 68.7132 24.5879L68.5602 25.5996C67.5263 24.4316 66.0182 23.8 64.2226 23.8C60.5886 23.8 58.1476 26.3169 58.1476 30.0693C58.1476 33.8216 60.5947 36.363 64.2226 36.363C66.0029 36.363 67.5079 35.7192 68.5449 34.5236L68.707 35.5077C68.7118 35.6671 68.7784 35.8184 68.8926 35.9294C69.0068 36.0404 69.1597 36.1025 69.3188 36.1024H70.16C70.3223 36.1024 70.4779 36.0378 70.5926 35.9229C70.7074 35.8079 70.7718 35.6519 70.7718 35.4893V24.6216C70.7663 24.4638 70.7003 24.3142 70.5874 24.204C70.4746 24.0938 70.3237 24.0315 70.1662 24.03ZM68.4011 30.057C68.3308 32.4513 66.7524 33.9994 64.3756 33.9994C61.9988 33.9994 60.4785 32.4206 60.4785 30.057C60.4785 27.6934 62.0447 26.1238 64.3756 26.1238C66.7738 26.1361 68.3522 27.6842 68.4011 30.057Z" fill="#5C3DA4"/>
<path d="M84.8853 24.0546H84.145C83.9889 24.0554 83.8382 24.1116 83.7195 24.2132C83.6008 24.3147 83.5218 24.4551 83.4965 24.6095L83.313 25.6426C82.2729 24.447 80.7557 23.8032 78.957 23.8032C75.3199 23.8032 72.8789 26.3324 72.8789 30.097C72.8789 33.8616 75.3261 36.3662 78.957 36.3662C80.6609 36.3662 82.1077 35.7868 83.1325 34.7138V41.3202C83.1325 41.4828 83.1969 41.6388 83.3117 41.7538C83.4264 41.8688 83.582 41.9334 83.7443 41.9334H84.8944C85.0567 41.9334 85.2123 41.8688 85.327 41.7538C85.4418 41.6388 85.5062 41.4828 85.5062 41.3202V24.6739C85.5071 24.5921 85.4915 24.5109 85.4606 24.4352C85.4296 24.3595 85.3839 24.2908 85.326 24.233C85.2681 24.1753 85.1993 24.1298 85.1236 24.0992C85.0479 24.0685 84.9669 24.0534 84.8853 24.0546ZM83.1172 30.0939C83.1172 32.4084 81.4623 34.024 79.0947 34.024C76.7271 34.024 75.1976 32.4452 75.1976 30.0939C75.1976 27.7426 76.7668 26.1638 79.0947 26.1638C81.4225 26.1638 83.1172 27.7793 83.1172 30.0939Z" fill="#5C3DA4"/>
<path d="M98.733 24.0545H97.5859C97.4236 24.0545 97.268 24.119 97.1533 24.234C97.0386 24.349 96.9741 24.505 96.9741 24.6676V29.8791C96.8732 32.2458 95.3743 34.03 93.4838 34.03C91.5934 34.03 90.7614 33.0582 90.7614 30.9644V24.6737C90.7656 24.5936 90.7533 24.5135 90.7252 24.4385C90.6971 24.3634 90.6539 24.2949 90.5982 24.2374C90.5425 24.1798 90.4755 24.1344 90.4015 24.104C90.3274 24.0736 90.2479 24.0588 90.168 24.0606H89.0025C88.8434 24.0654 88.6925 24.1321 88.5817 24.2465C88.4709 24.361 88.409 24.5142 88.4091 24.6737V30.9368C88.4091 34.4347 90.1496 36.363 93.3034 36.363C94.0483 36.3871 94.7883 36.2328 95.4618 35.9129C96.1353 35.593 96.723 35.1167 97.176 34.5236L97.3351 35.5782C97.363 35.7264 97.442 35.8601 97.5583 35.9559C97.6746 36.0517 97.8208 36.1036 97.9713 36.1024H98.7361C98.8952 36.1024 99.0481 36.0404 99.1623 35.9293C99.2765 35.8183 99.3431 35.667 99.3478 35.5076V24.6737C99.3487 24.5924 99.3333 24.5118 99.3028 24.4365C99.2722 24.3612 99.227 24.2927 99.1698 24.2351C99.1125 24.1775 99.0445 24.1318 98.9695 24.1008C98.8945 24.0698 98.8141 24.054 98.733 24.0545Z" fill="#5C3DA4"/>
<path d="M104.165 24.0544H102.994C102.836 24.0544 102.685 24.1171 102.574 24.2286C102.463 24.3402 102.4 24.4914 102.4 24.6492V35.5138C102.405 35.6732 102.472 35.8244 102.586 35.9355C102.7 36.0465 102.853 36.1086 103.012 36.1085H104.159C104.238 36.1111 104.316 36.0974 104.389 36.0684C104.462 36.0395 104.529 35.9958 104.584 35.94C104.64 35.8843 104.684 35.8177 104.713 35.7444C104.742 35.671 104.755 35.5926 104.753 35.5138V24.6492C104.753 24.4925 104.691 24.3422 104.581 24.2308C104.471 24.1194 104.322 24.0561 104.165 24.0544Z" fill="#5C3DA4"/>
<path d="M118.959 24.03H118.145C117.99 24.0331 117.841 24.0907 117.724 24.1926C117.607 24.2946 117.53 24.4345 117.506 24.5879L117.353 25.5996C116.319 24.4316 114.811 23.8 113.018 23.8C109.381 23.8 106.94 26.3169 106.94 30.0693C106.94 33.8216 109.387 36.363 113.018 36.363C114.795 36.363 116.3 35.7192 117.337 34.5236L117.5 35.5077C117.504 35.6671 117.571 35.8184 117.685 35.9294C117.799 36.0404 117.952 36.1025 118.111 36.1024H118.953C119.115 36.1024 119.27 36.0378 119.385 35.9229C119.5 35.8079 119.564 35.6519 119.564 35.4893V24.6216C119.559 24.4638 119.493 24.3142 119.38 24.204C119.267 24.0938 119.116 24.0315 118.959 24.03ZM117.194 30.057C117.123 32.4513 115.545 33.9994 113.171 33.9994C110.797 33.9994 109.274 32.4206 109.274 30.057C109.274 27.6934 110.84 26.1361 113.168 26.1361C115.566 26.1361 117.145 27.6842 117.194 30.057Z" fill="#5C3DA4"/>
<path d="M129.075 23.8C127.276 23.8 125.759 24.4469 124.716 25.6394L124.535 24.6124C124.515 24.4569 124.439 24.3142 124.321 24.2109C124.204 24.1076 124.052 24.0509 123.896 24.0514H123.131C122.969 24.0514 122.813 24.116 122.698 24.231C122.584 24.346 122.519 24.5019 122.519 24.6646V41.3079C122.519 41.4705 122.584 41.6264 122.698 41.7414C122.813 41.8564 122.969 41.921 123.131 41.921H124.278C124.44 41.921 124.596 41.8564 124.711 41.7414C124.826 41.6264 124.89 41.4705 124.89 41.3079V34.7106C125.915 35.7836 127.365 36.363 129.068 36.363C132.703 36.363 135.144 33.8431 135.144 30.0938C135.144 26.3445 132.721 23.8 129.075 23.8ZM132.819 30.0938C132.819 32.4451 131.253 34.0239 128.922 34.0239C126.591 34.0239 124.896 32.4083 124.896 30.0938C124.896 27.7792 126.551 26.1637 128.922 26.1637C131.292 26.1637 132.831 27.7425 132.831 30.0938H132.819Z" fill="#5C3DA4"/>
<path d="M139.111 16.9207H137.946C137.866 16.9182 137.787 16.9318 137.713 16.9606C137.639 16.9894 137.571 17.0328 137.514 17.0882C137.457 17.1437 137.412 17.2101 137.381 17.2835C137.35 17.3569 137.334 17.4358 137.334 17.5154V35.5138C137.339 35.6732 137.405 35.8244 137.519 35.9355C137.634 36.0465 137.786 36.1086 137.946 36.1085H139.096C139.174 36.1111 139.252 36.0974 139.325 36.0684C139.398 36.0394 139.465 35.9956 139.52 35.9398C139.575 35.884 139.619 35.8174 139.647 35.7441C139.676 35.6708 139.689 35.5924 139.686 35.5138V17.5154C139.686 17.3608 139.626 17.2123 139.519 17.1013C139.411 16.9902 139.265 16.9255 139.111 16.9207Z" fill="#5C3DA4"/>
<path d="M144.62 24.0544H143.452C143.372 24.0519 143.293 24.0655 143.219 24.0942C143.145 24.123 143.077 24.1664 143.02 24.2219C142.963 24.2774 142.918 24.3438 142.887 24.4172C142.856 24.4906 142.84 24.5694 142.84 24.6491V35.5137C142.845 35.6731 142.911 35.8244 143.026 35.9354C143.14 36.0464 143.293 36.1085 143.452 36.1084H144.602C144.681 36.111 144.759 36.0974 144.832 36.0683C144.905 36.0393 144.971 35.9956 145.026 35.9398C145.082 35.884 145.125 35.8174 145.154 35.7441C145.182 35.6707 145.195 35.5923 145.192 35.5137V24.6491C145.193 24.495 145.133 24.3469 145.026 24.236C144.92 24.125 144.774 24.0599 144.62 24.0544Z" fill="#5C3DA4"/>
<path d="M144.064 18.4287C143.846 18.4154 143.628 18.4477 143.423 18.5237C143.219 18.5997 143.032 18.7176 142.875 18.8699C142.719 19.0223 142.596 19.2057 142.514 19.4084C142.432 19.6111 142.393 19.8287 142.4 20.0474C142.39 20.269 142.426 20.4904 142.506 20.6972C142.586 20.9041 142.708 21.092 142.865 21.2489C143.022 21.4058 143.209 21.5283 143.415 21.6085C143.622 21.6888 143.843 21.7251 144.064 21.7151C144.283 21.7243 144.501 21.6871 144.704 21.6058C144.907 21.5246 145.091 21.4011 145.243 21.2436C145.395 21.0861 145.513 20.8981 145.587 20.6919C145.662 20.4857 145.692 20.2661 145.676 20.0474C145.688 19.8318 145.655 19.6161 145.579 19.4142C145.502 19.2124 145.384 19.0291 145.232 18.8763C145.079 18.7235 144.897 18.6046 144.695 18.5275C144.494 18.4503 144.279 18.4167 144.064 18.4287Z" fill="#5C3DA4"/>
<path d="M153.623 26.1633C155.049 26.1633 156.248 26.7765 156.896 27.7759C156.945 27.8818 157.023 27.9716 157.121 28.0346C157.219 28.0976 157.333 28.1312 157.45 28.1315C157.605 28.1301 157.754 28.0698 157.866 27.9629L158.655 27.2608C158.733 27.2154 158.798 27.1523 158.846 27.0766C158.895 27.001 158.925 26.9149 158.934 26.8255C158.945 26.6723 158.906 26.5195 158.823 26.3902C158.254 25.5619 157.488 24.8888 156.594 24.4317C155.7 23.9746 154.706 23.7479 153.703 23.7721C152.007 23.7397 150.367 24.3786 149.139 25.5502C147.998 26.6845 147.392 28.2449 147.392 30.069C147.392 33.7722 149.955 36.3627 153.623 36.3627C155.841 36.3627 157.737 35.4185 158.823 33.7569C158.9 33.631 158.936 33.4841 158.924 33.3369C158.92 33.2579 158.897 33.181 158.858 33.112C158.82 33.043 158.766 32.9836 158.701 32.9384L157.875 32.2149C157.806 32.1514 157.724 32.104 157.634 32.0761C157.545 32.0483 157.45 32.0407 157.358 32.0539C157.265 32.0671 157.176 32.1007 157.098 32.1524C157.02 32.2041 156.954 32.2726 156.905 32.3528C156.239 33.3982 155.039 33.9991 153.614 33.9991C151.283 33.9991 149.717 32.4203 149.717 30.069C149.717 27.7176 151.256 26.1633 153.623 26.1633Z" fill="#5C3DA4"/>
<path d="M166.323 23.8C162.598 23.8 160.095 26.3169 160.095 30.0693C160.095 33.7726 162.656 36.363 166.323 36.363C170.068 36.363 172.579 33.8339 172.579 30.0693C172.579 26.3047 170.065 23.8 166.323 23.8ZM170.221 30.057C170.221 32.4083 168.654 33.9871 166.323 33.9871C163.993 33.9871 162.417 32.4206 162.417 30.057C162.417 27.6934 163.983 26.1238 166.314 26.1238C168.645 26.1238 170.221 27.7179 170.221 30.057Z" fill="#5C3DA4"/>
<path d="M106.215 19.9401L104.325 21.473C104.161 21.6325 103.942 21.7218 103.713 21.7218C103.485 21.7218 103.265 21.6325 103.101 21.473L102.863 21.2338C102.701 21.0712 102.609 20.8506 102.609 20.6207C102.609 20.3908 102.701 20.1703 102.863 20.0076L104.365 18.0793C104.625 17.7727 105.087 17.5857 105.588 18.0793L106.2 18.6924C106.705 19.1952 106.527 19.6673 106.215 19.9401Z" fill="#5C3DA4"/>
<path d="M7.24019 32.5584C7.78468 35.0415 9.97488 37.0342 12.3333 37.1905C12.5903 37.2089 12.8472 37.2181 13.1011 37.2181C15.9812 37.218 18.7517 36.1122 20.8433 34.128C23.0334 32.0594 24.386 29.2544 24.6425 26.2493V26.1819C24.6776 25.94 24.6511 25.6932 24.5656 25.4643C24.48 25.2355 24.3381 25.032 24.1531 24.8728L18.7326 19.5785C18.243 19.0822 17.8044 18.5379 17.4234 17.9537C16.386 16.3571 15.8195 14.4993 15.7892 12.5943C15.7589 10.6892 16.266 8.81431 17.2522 7.18539C18.2384 5.55648 19.6635 4.23976 21.3635 3.38683C23.0635 2.5339 24.9693 2.17943 26.8615 2.36422C28.7536 2.54901 30.5553 3.26555 32.059 4.43136C33.5627 5.59716 34.7074 7.16484 35.3612 8.95392C36.015 10.743 36.1514 12.6807 35.7547 14.5441C35.358 16.4075 34.4443 18.1207 33.1188 19.4865L27.8575 24.6214C27.6039 24.8666 27.4113 25.1679 27.2949 25.5012C27.1786 25.8345 27.1418 26.1904 27.1875 26.5405C27.3696 28.5925 28.0789 30.5623 29.2462 32.2579C30.0796 33.4844 31.1467 34.5337 32.3862 35.3455C33.6256 36.1573 35.0129 36.7156 36.4684 36.9882C37.4335 37.1818 38.42 37.2457 39.4019 37.1783C39.8785 37.1463 40.3476 37.0429 40.7937 36.8717C41.6688 36.5565 42.4573 36.0388 43.0951 35.3607C43.7329 34.6826 44.2021 33.8632 44.4644 32.9692C45.1496 30.5167 44.1065 27.7208 42.0356 26.4363C41.7713 26.2834 41.4887 26.1649 41.1944 26.0838C41.0723 26.0429 40.9477 26.0101 40.8212 25.9857H40.7692C40.5528 25.9492 40.334 25.9287 40.1146 25.9243C40.1146 25.9243 39.8638 25.9243 39.7781 25.9243C39.6308 25.9143 39.4829 25.9345 39.3436 25.9838C39.2043 26.033 39.0764 26.1102 38.9679 26.2106C38.8594 26.3111 38.7725 26.4326 38.7124 26.5679C38.6524 26.7032 38.6206 26.8493 38.6188 26.9973C38.5939 27.2929 38.6852 27.5865 38.8732 27.8156C39.0612 28.0446 39.331 28.191 39.6252 28.2236C39.6252 28.2236 39.9311 28.2573 40.0259 28.2604C40.4081 28.2844 40.7726 28.4305 41.066 28.6773C42.0173 29.4161 42.5128 31.0899 42.1488 32.3315C41.7481 33.6988 40.497 34.7656 39.1847 34.8668H39.1297H39.0624C37.6857 34.9199 36.3148 34.6618 35.0513 34.1114C33.7878 33.5611 32.6642 32.7327 31.7637 31.6877L31.6138 31.5069C31.5588 31.4425 31.5037 31.375 31.4517 31.3045C31.3997 31.234 31.3324 31.1512 31.2773 31.0746L31.1642 30.9213C30.1927 29.5693 29.5992 27.9818 29.445 26.3229L34.6911 21.2063L34.7921 21.1021C36.4196 19.4225 37.5411 17.3166 38.0275 15.0267C38.5139 12.7367 38.3454 10.3556 37.5415 8.15733C36.7375 5.95904 35.3308 4.03281 33.483 2.60019C31.6353 1.16756 29.4215 0.286725 27.0965 0.0589854C24.7714 -0.168754 22.4293 0.265854 20.3398 1.31282C18.2502 2.35979 16.4979 3.9766 15.2845 5.97729C14.0711 7.97798 13.4458 10.2813 13.4805 12.6223C13.5153 14.9633 14.2087 17.247 15.481 19.2106C15.9521 19.9323 16.4953 20.6041 17.1022 21.2155L22.3667 26.3781C22.1801 28.1804 21.4816 29.8912 20.3539 31.3076C19.4503 32.4912 18.2709 33.4346 16.919 34.0551C15.567 34.6756 14.0839 34.9543 12.5995 34.8668C11.9006 34.7894 11.2401 34.507 10.7008 34.0549C10.1615 33.6028 9.76744 33.0011 9.56804 32.3254C9.20097 31.0838 9.69958 29.413 10.6601 28.6711C10.9449 28.4143 11.3111 28.2666 11.694 28.2542H12.1314C12.4154 28.2278 12.6783 28.0931 12.8661 27.8781C13.054 27.6631 13.1523 27.384 13.1409 27.0985C13.1413 26.9438 13.1112 26.7905 13.0523 26.6475C12.9934 26.5045 12.9069 26.3746 12.7977 26.2652C12.6886 26.1558 12.5589 26.0691 12.4162 26.0101C12.2735 25.951 12.1206 25.9209 11.9663 25.9213C11.8806 25.9213 11.6267 25.9213 11.6267 25.9213C11.0565 25.9094 10.4932 26.0479 9.99324 26.3229C7.95598 27.402 6.71711 30.2009 7.24019 32.5584Z" fill="#5C3DA4"/>
<path d="M20.7881 12.5274C20.7881 12.9136 20.9024 13.2912 21.1165 13.6123C21.3306 13.9335 21.6349 14.1837 21.991 14.3316C22.347 14.4794 22.7388 14.518 23.1168 14.4427C23.4947 14.3673 23.8419 14.1813 24.1145 13.9082C24.387 13.6351 24.5725 13.2872 24.6477 12.9084C24.7229 12.5296 24.6843 12.1369 24.5368 11.7801C24.3894 11.4233 24.1396 11.1183 23.8192 10.9037C23.4987 10.6891 23.122 10.5746 22.7366 10.5746C22.2201 10.5754 21.7249 10.7814 21.3597 11.1474C20.9944 11.5135 20.7889 12.0097 20.7881 12.5274Z" fill="#5C3DA4"/>
<path d="M31.0021 12.5274C31.0021 12.1414 30.8879 11.7641 30.6741 11.4431C30.4603 11.1221 30.1563 10.8718 29.8006 10.7238C29.4449 10.5758 29.0534 10.5368 28.6756 10.6117C28.2978 10.6865 27.9506 10.8719 27.6779 11.1444C27.4051 11.4169 27.219 11.7643 27.1432 12.1427C27.0673 12.5211 27.105 12.9135 27.2516 13.2705C27.3981 13.6274 27.6469 13.9328 27.9665 14.1481C28.2862 14.3634 28.6623 14.479 29.0474 14.4802C29.3038 14.481 29.5578 14.4311 29.795 14.3333C30.0321 14.2355 30.2476 14.0918 30.4292 13.9104C30.6108 13.729 30.7549 13.5134 30.8532 13.2761C30.9515 13.0388 31.0021 12.7843 31.0021 12.5274Z" fill="#5C3DA4"/>
<path d="M55.4765 20.1149L52.7969 14.1921C52.7441 14.0768 52.6582 13.9799 52.5502 13.9138C52.4422 13.8477 52.317 13.8154 52.1906 13.821C52.0641 13.8266 51.9422 13.8698 51.8405 13.9452C51.7387 14.0206 51.6617 14.1247 51.6192 14.2442L51.1298 15.6268C50.7291 15.3202 50.3192 15.0137 49.9062 14.7347C48.6212 13.8619 47.0441 13.5332 45.5183 13.8203C43.9926 14.1074 42.6419 14.987 41.7603 16.2675C39.9249 18.9254 40.6132 22.5091 43.3111 24.4221C45.9571 26.2982 47.2082 28.8918 47.0278 32.126C46.8314 34.0378 45.9833 35.8232 44.6265 37.1813C43.2697 38.5395 41.4871 39.3872 39.5792 39.5816C36.2234 39.7761 32.91 38.752 30.2464 36.6969C27.5698 34.6858 24.2539 34.6797 21.5988 36.6785C18.938 38.7338 15.6296 39.764 12.2751 39.5816C10.3524 39.4331 8.54998 38.586 7.20647 37.1996C5.81605 35.8673 4.95613 34.074 4.78684 32.1536C4.59413 28.8918 5.86053 26.2768 8.5524 24.3822C10.5805 22.9536 11.4094 20.8935 10.9506 18.4196C10.5254 16.1142 9.03265 14.5507 6.6375 13.8947C4.54213 13.3245 1.56884 14.3024 0.293259 15.8751C0.116913 16.0929 0.0146705 16.3615 0.00146264 16.6417C-0.0117452 16.9219 0.0647739 17.1989 0.219845 17.4324C0.681745 18.1099 1.63308 17.8095 2.00321 17.5612C2.13474 17.4723 2.2571 17.3681 2.38863 17.2546C2.69113 17.0102 3.00557 16.781 3.33079 16.5679C3.87842 16.2071 4.51877 16.0133 5.17414 16.0101C5.82951 16.0068 6.47174 16.1942 7.02293 16.5495C7.60837 16.8827 8.08141 17.3833 8.38163 17.9872C8.68185 18.5912 8.79562 19.2711 8.7084 19.9401C8.57687 21.3718 7.61942 22.2056 6.91281 22.6992C5.1852 23.9019 3.85831 25.5973 3.10445 27.5654C2.35058 29.5334 2.20456 31.6832 2.68535 33.7355C3.12855 35.7632 4.17113 37.61 5.67714 39.035C7.18314 40.4601 9.08267 41.3974 11.128 41.7245C15.1046 42.3683 18.9926 41.3689 22.6816 38.7539C23.9052 37.8863 24.9361 37.4817 25.9149 37.4817C26.8938 37.4817 27.8971 37.8802 29.0901 38.7386C32.0512 40.8692 35.2478 41.8809 39.1479 41.9207C39.2642 41.9207 39.3835 41.9207 39.4997 41.9207C42.1732 41.9207 44.8743 40.6147 46.7861 38.383C47.8518 37.1353 48.6186 35.6598 49.0279 34.0695C49.4372 32.4792 49.4781 30.8161 49.1476 29.2075C48.6031 26.4485 47.1012 24.2228 44.5592 22.4172C43.8012 21.8823 43.2846 21.0692 43.1215 20.1547C43.0352 19.7142 43.0376 19.2609 43.1285 18.8213C43.2194 18.3818 43.3969 17.9648 43.6507 17.5949C44.1701 16.8204 44.9726 16.2818 45.8849 16.0954C46.7973 15.9089 47.7462 16.0897 48.5266 16.5986C48.8876 16.8254 49.2332 17.0922 49.582 17.3589L49.6309 17.3956L48.3186 18.1345C48.2074 18.1953 48.1169 18.2879 48.0586 18.4006C48.0003 18.5133 47.9769 18.6409 47.9913 18.767C48.0058 18.8931 48.0575 19.012 48.1397 19.1085C48.222 19.205 48.3312 19.2746 48.4532 19.3086L54.7088 21.0346C54.8297 21.0641 54.9566 21.0591 55.0749 21.0202C55.1932 20.9812 55.2983 20.9098 55.3782 20.8141C55.4581 20.7184 55.5097 20.6022 55.527 20.4786C55.5444 20.355 55.5269 20.229 55.4765 20.1149Z" fill="#5C3DA4"/>
<path d="M139.475 46.0194C139.671 46.0194 139.862 46.0775 140.024 46.1863C140.187 46.2951 140.313 46.4498 140.388 46.6307C140.463 46.8116 140.483 47.0107 140.444 47.2028C140.406 47.3949 140.312 47.5713 140.174 47.7098C140.036 47.8483 139.86 47.9426 139.668 47.9808C139.476 48.019 139.278 47.9994 139.097 47.9245C138.917 47.8495 138.762 47.7226 138.654 47.5598C138.545 47.3969 138.487 47.2055 138.487 47.0096C138.48 46.8777 138.501 46.7458 138.548 46.6225C138.595 46.4991 138.668 46.3871 138.761 46.2937C138.854 46.2003 138.966 46.1276 139.089 46.0804C139.212 46.0331 139.344 46.0123 139.475 46.0194Z" fill="#5C3DA4"/>
<path d="M145.979 48C143.712 48 142.17 46.4427 142.17 44.168C142.17 41.6051 144.082 40.3206 145.994 40.3206C146.616 40.3036 147.233 40.4434 147.788 40.7273C148.343 41.0112 148.818 41.43 149.169 41.9454C149.193 41.9803 149.203 42.0228 149.197 42.0647C149.191 42.1065 149.171 42.1448 149.138 42.1722L148.392 42.8038C148.377 42.8176 148.359 42.8279 148.339 42.8337C148.32 42.8396 148.299 42.8409 148.279 42.8375C148.249 42.8395 148.22 42.8331 148.194 42.819C148.168 42.8049 148.146 42.7836 148.132 42.7578C147.901 42.4039 147.582 42.116 147.207 41.9221C146.832 41.7281 146.413 41.6348 145.991 41.6511C144.483 41.6511 143.479 42.6597 143.479 44.168C143.479 45.6763 144.483 46.7002 145.991 46.7002C146.408 46.7141 146.823 46.6236 147.197 46.4368C147.57 46.25 147.892 45.9728 148.132 45.6303C148.144 45.6012 148.165 45.5764 148.191 45.5589C148.217 45.5415 148.247 45.5322 148.279 45.5322C148.321 45.5336 148.362 45.5511 148.392 45.5812L149.105 46.2158C149.137 46.2428 149.159 46.2809 149.165 46.3228C149.171 46.3647 149.162 46.4073 149.138 46.4427C148.475 47.4329 147.37 48 145.979 48Z" fill="#5C3DA4"/>
<path d="M154.094 40.3358C156.379 40.3358 157.902 41.8686 157.902 44.1525C157.902 46.4364 156.373 47.9999 154.094 47.9999C151.815 47.9999 150.285 46.4426 150.285 44.1525C150.285 41.8625 151.827 40.3358 154.094 40.3358ZM154.094 46.7001C155.602 46.7001 156.605 45.6608 156.605 44.1679C156.605 42.6749 155.602 41.6356 154.094 41.6356C153.424 41.6356 152.781 41.9024 152.307 42.3773C151.833 42.8522 151.567 43.4963 151.567 44.1679C151.567 44.8394 151.833 45.4835 152.307 45.9584C152.781 46.4333 153.424 46.7001 154.094 46.7001Z" fill="#5C3DA4"/>
<path d="M160.46 40.4981C160.506 40.4974 160.552 40.5134 160.588 40.5432C160.624 40.573 160.648 40.6146 160.656 40.6606L160.833 41.7336C161.045 41.3026 161.375 40.9416 161.786 40.6937C162.197 40.4459 162.67 40.3216 163.149 40.3356C163.655 40.3028 164.158 40.4341 164.584 40.7102C165.01 40.9862 165.336 41.3924 165.513 41.8685C165.753 41.3978 166.121 41.0043 166.574 40.7333C167.026 40.4622 167.546 40.3244 168.074 40.3356C169.661 40.3356 170.747 41.3933 170.747 43.6159V47.6748C170.747 47.7729 170.698 47.8372 170.6 47.8372H169.597C169.575 47.8386 169.554 47.8353 169.533 47.8276C169.513 47.8199 169.495 47.808 169.479 47.7926C169.464 47.7773 169.452 47.7588 169.444 47.7385C169.437 47.7182 169.434 47.6964 169.435 47.6748V43.714C169.435 42.2026 168.802 41.6355 167.814 41.6355C166.648 41.6355 165.838 42.6747 165.822 44.3792V47.6748C165.824 47.6964 165.82 47.7182 165.813 47.7385C165.805 47.7588 165.793 47.7773 165.778 47.7926C165.762 47.808 165.744 47.8199 165.724 47.8276C165.703 47.8353 165.682 47.8386 165.66 47.8372H164.672C164.65 47.8386 164.629 47.8353 164.608 47.8276C164.588 47.8199 164.57 47.808 164.554 47.7926C164.539 47.7773 164.527 47.7588 164.52 47.7385C164.512 47.7182 164.509 47.6964 164.51 47.6748V43.714C164.51 42.2026 163.861 41.6355 162.892 41.6355C161.757 41.6355 160.962 42.7728 160.897 44.2658V47.6748C160.899 47.6964 160.895 47.7182 160.888 47.7385C160.88 47.7588 160.868 47.7773 160.853 47.7926C160.837 47.808 160.819 47.8199 160.799 47.8276C160.778 47.8353 160.757 47.8386 160.735 47.8372H159.747C159.726 47.8386 159.704 47.8353 159.684 47.8276C159.663 47.8199 159.645 47.808 159.63 47.7926C159.614 47.7773 159.602 47.7588 159.595 47.7385C159.587 47.7182 159.584 47.6964 159.585 47.6748V40.6606C159.584 40.6389 159.587 40.6172 159.595 40.5969C159.602 40.5765 159.614 40.5581 159.63 40.5427C159.645 40.5274 159.663 40.5154 159.684 40.5077C159.704 40.5001 159.726 40.4968 159.747 40.4981H160.46Z" fill="#5C3DA4"/>
</svg>
